<svg id="Layer_1" data-name="Layer 1" xmlns="http://www.w3.org/2000/svg" viewBox="0 0 350 50"><defs><style>.cls-1{fill:#4a95d0;}.cls-2{font-size:26.26px;font-family:OpenSauceOne-Bold, Open Sauce One;font-weight:700;}.cls-2,.cls-3,.cls-4{fill:#231f20;}.cls-3{font-size:10.17px;font-family:OpenSauceOne-Regular, Open Sauce One;}</style></defs><path class="cls-1" d="M50.34,21.65H17.85a3.38,3.38,0,0,0-3.14,2.11,1.44,1.44,0,0,1-1.33.91h-.1A1.42,1.42,0,0,1,12,23.79a3.4,3.4,0,1,0-3.16,4.66,3.42,3.42,0,0,0,3.15-2.11,1.42,1.42,0,0,1,1.32-.91h.12a1.44,1.44,0,0,1,1.33.91,3.4,3.4,0,0,0,3.14,2.11H50.41A3.39,3.39,0,0,0,53.8,25a3.44,3.44,0,0,0-3.46-3.3"/><path class="cls-1" d="M31.69,14.7a1.42,1.42,0,0,1-1.32.91h-.1a1.44,1.44,0,0,1-1.34-.88,3.4,3.4,0,1,0,0,2.55,1.43,1.43,0,0,1,1.32-.91h.13a1.42,1.42,0,0,1,1.32.91,3.41,3.41,0,0,0,3.15,2.11h8.7A3.45,3.45,0,0,0,47,16.09a3.41,3.41,0,0,0-3.4-3.5H34.84a3.41,3.41,0,0,0-3.15,2.11"/><path class="cls-1" d="M18.66,10.31a3.39,3.39,0,0,0,3.48-2.12,1.42,1.42,0,0,1,1.33-.88h.11a1.43,1.43,0,0,1,1.32.91A3.39,3.39,0,0,0,28,10.33H37.1a3.4,3.4,0,0,0,3.38-3h0V6.55h0a3.4,3.4,0,0,0-3.38-3H28A3.41,3.41,0,0,0,24.9,5.64a1.43,1.43,0,0,1-1.32.91h-.13a1.42,1.42,0,0,1-1.32-.91,3.4,3.4,0,0,0-6.52,1.68,3.39,3.39,0,0,0,3.05,3"/><path class="cls-1" d="M43.54,30.71h-8.7a3.41,3.41,0,0,0-3.15,2.11,1.43,1.43,0,0,1-1.32.91h-.1a1.44,1.44,0,0,1-1.34-.88,3.4,3.4,0,1,0,0,2.55,1.43,1.43,0,0,1,1.32-.91h.13a1.42,1.42,0,0,1,1.32.91,3.42,3.42,0,0,0,3.15,2.11h8.77A3.41,3.41,0,0,0,47,34a3.45,3.45,0,0,0-3.47-3.3"/><path class="cls-1" d="M37,39.77H28a3.39,3.39,0,0,0-3.14,2.11,1.44,1.44,0,0,1-1.32.91h-.11a1.42,1.42,0,0,1-1.33-.88A3.4,3.4,0,1,0,19,46.57a3.42,3.42,0,0,0,3.15-2.11,1.42,1.42,0,0,1,1.32-.91h.13a1.43,1.43,0,0,1,1.32.91A3.41,3.41,0,0,0,28,46.57H37.1a3.41,3.41,0,0,0,3.4-3.5A3.45,3.45,0,0,0,37,39.77"/><text class="cls-2" transform="translate(57.5 28.51)">INSPIRE SHAPE <tspan class="cls-1" x="209.27" y="0">BUILD</tspan></text><text class="cls-3" transform="translate(101.89 42.17)">G</text><text class="cls-3" transform="translate(120.25 42.17)">H</text><text class="cls-3" transform="translate(137.17 42.17)">O</text><text class="cls-3" transform="translate(154.4 42.17)">S</text><text class="cls-3" transform="translate(170.9 42.17)">T</text><text class="cls-3" transform="translate(188.09 42.17)">W</text><text class="cls-3" transform="translate(208.83 42.17)">R</text><text class="cls-3" transform="translate(226.91 42.17)">I</text><text class="cls-3" transform="translate(238.98 42.17)">T</text><text class="cls-3" transform="translate(254.99 42.17)">E</text><text class="cls-3" transform="translate(272.64 42.17)">R</text><text class="cls-3" transform="translate(290.5 42.17)">S</text><rect class="cls-4" x="314.2" y="37.65" width="29.72" height="1.57"/><rect class="cls-4" x="59.27" y="37.65" width="29.38" height="1.57"/></svg>